<?xml version="1.0" encoding="utf-8"?>
<!-- Generator: Adobe Illustrator 27.4.1, SVG Export Plug-In . SVG Version: 6.00 Build 0)  -->
<svg version="1.1" id="Layer_1" xmlns="http://www.w3.org/2000/svg" xmlns:xlink="http://www.w3.org/1999/xlink" x="0px" y="0px"
	 viewBox="0 0 44 44" style="enable-background:new 0 0 44 44;" xml:space="preserve">
<style type="text/css">
	.st0{fill:url(#SVGID_1_);}
	.st1{fill-rule:evenodd;clip-rule:evenodd;fill:url(#SVGID_00000005957551070710528870000018279797878177235880_);}
</style>
<g>
	<g>
		
			<linearGradient id="SVGID_1_" gradientUnits="userSpaceOnUse" x1="22" y1="804" x2="22" y2="848" gradientTransform="matrix(1 0 0 1 0 -804)">
			<stop  offset="0" style="stop-color:#00FF89"/>
			<stop  offset="1" style="stop-color:#00B964"/>
		</linearGradient>
		<path class="st0" d="M10,0h24c5.5,0,10,4.5,10,10v24c0,5.5-4.5,10-10,10H10C4.5,44,0,39.5,0,34V10C0,4.5,4.5,0,10,0z"/>
		<g>
			<g>
				<g>
					
						<linearGradient id="SVGID_00000101802944431626544550000016973227766032857516_" gradientUnits="userSpaceOnUse" x1="22" y1="811" x2="22" y2="840.8" gradientTransform="matrix(1 0 0 1 0 -804)">
						<stop  offset="0.6429" style="stop-color:#FFFFFF"/>
						<stop  offset="1" style="stop-color:#6EF7B7"/>
					</linearGradient>
					<path style="fill-rule:evenodd;clip-rule:evenodd;fill:url(#SVGID_00000101802944431626544550000016973227766032857516_);" d="
						M35,28.4c2.3,0,4.2,1.9,4.2,4.2s-1.9,4.2-4.2,4.2s-4.2-1.9-4.2-4.2C30.8,30.2,32.7,28.4,35,28.4z M18.4,12.9h0.1l6.2,2.5
						c1.8-0.2,3.1-0.3,4.1-0.2l-0.2,0.1c1.8-1.6,3.4-1.2,3.4-1.2c2,1.9,0.4,3.1,0.4,3.1l-0.8,0.6c0.8,1.7,1.6,1.8,4.4,4.8
						c1.2,1.3,2.1,2.6,2.5,3.8l0.1,0.4c0.1,0.4-0.1,0.8-0.5,0.9c-0.2,0.1-0.4,0-0.5,0c-1.8-0.9-3.5-1-5.2-0.2
						c-1.9,0.9-3,2.5-3.2,4.7c0,0.3-0.3,0.5-0.6,0.5h-6.9c-1.6,0-3.2-0.2-4.7-0.7l-0.9-0.3c0.1,0.3,0.1,0.6,0.1,0.9
						c0,2.3-1.9,4.2-4.2,4.2s-4.2-1.9-4.2-4.2c0-1.3,0.6-2.4,1.4-3.2l-1.9-0.6c-0.6-0.2-1.1-0.8-1-1.5c0.3-3,0.7-4.7,1.4-5.2
						c0.6-0.4,3.2-0.4,7.8,0c-0.7-0.7-0.9-1.6-0.7-2.7c0.6-2.1,1.6-4.2,3-6.2C18,13,18.2,12.9,18.4,12.9z M35,30.8
						c-1,0-1.8,0.8-1.8,1.8c0,1,0.8,1.8,1.8,1.8s1.8-0.8,1.8-1.8C36.8,31.6,36,30.8,35,30.8z M12.1,30.8c-1,0-1.8,0.8-1.8,1.8
						c0,1,0.8,1.8,1.8,1.8s1.8-0.8,1.8-1.8C13.9,31.6,13.1,30.8,12.1,30.8z M21.5,17l-1.3,2.9c0.5,0.5,1.4,0.8,2.8,1.2
						c1.3,0.3,1.8,1.1,1.5,2.3l-0.1,0.2l-1.8,5.2h0.1h0.6c2.3,0,2.4-0.2,4-1.9c1.5-1.7,1.7-6.2,1.3-9.1c-0.2,0.1-0.4,0.1-0.6,0.1
						h-0.2l-4.3,0.3L21.5,17z M20.2,23.6l0.1,0.2c0.2,0.3,0.3,0.7,0.4,1.2l0.4-1.3C20.8,23.6,20.5,23.6,20.2,23.6z M8.1,11.7v3H10
						v-3h2c0.8,0,1.4,0.6,1.4,1.4v5.6c0,0.8-0.6,1.4-1.4,1.4H6.2c-0.8,0-1.4-0.6-1.4-1.4v-5.6c0-0.8,0.6-1.4,1.4-1.4L8.1,11.7z
						 M20.8,7h0.3h0.2c1.2,0.2,2.1,1,2.4,2.1v0.2l-1.5,0.2h-0.1c-0.1,0-0.2,0.1-0.2,0.2v0.1v0.5v0.1c0,0.1,0.1,0.2,0.2,0.2h0.1
						l1.6,0.6h0.1c0.1,0,0.1,0.1,0.1,0.2v0.1l-0.5,1.2v0.1c-0.1,0.1-0.2,0.2-0.4,0.1l-0.2-0.1l-0.2-0.1l-1.1-0.3l-0.7-0.2L20,12
						l-0.5-0.2l-0.4-0.2l-0.4-0.1l-0.3-0.1c-0.3-0.1-0.4-0.2-0.5-0.3c-0.3-0.5-0.5-1-0.4-1.6c0-0.8,0.5-1.5,1.1-1.9
						C19.2,7.2,19.8,7,20.5,7H20.8z"/>
				</g>
			</g>
		</g>
	</g>
</g>
</svg>
