<?xml version="1.0" encoding="utf-8"?>
<!-- Generator: Adobe Illustrator 27.4.1, SVG Export Plug-In . SVG Version: 6.00 Build 0)  -->
<svg version="1.1" id="Layer_1" xmlns="http://www.w3.org/2000/svg" xmlns:xlink="http://www.w3.org/1999/xlink" x="0px" y="0px"
	 viewBox="0 0 44 44" style="enable-background:new 0 0 44 44;" xml:space="preserve">
<style type="text/css">
	.st0{fill:url(#SVGID_1_);}
	.st1{fill-rule:evenodd;clip-rule:evenodd;fill:url(#SVGID_00000039818811758218890090000008116378594783580581_);}
</style>
<g>
	<g>
		
			<linearGradient id="SVGID_1_" gradientUnits="userSpaceOnUse" x1="22" y1="46.3937" x2="22" y2="2.3937" gradientTransform="matrix(1 0 0 -1 0 46.3937)">
			<stop  offset="0" style="stop-color:#FF9E9C"/>
			<stop  offset="1" style="stop-color:#F80400"/>
		</linearGradient>
		<path class="st0" d="M10,0h24c5.5,0,10,4.5,10,10v24c0,5.5-4.5,10-10,10H10C4.5,44,0,39.5,0,34V10C0,4.5,4.5,0,10,0z"/>
		
			<linearGradient id="SVGID_00000085936305285929998530000001083804297736402834_" gradientUnits="userSpaceOnUse" x1="22" y1="39.3937" x2="22" y2="9.3937" gradientTransform="matrix(1 0 0 -1 0 46.3937)">
			<stop  offset="0.6771" style="stop-color:#FFFFFF"/>
			<stop  offset="1" style="stop-color:#FF9D9B"/>
		</linearGradient>
		<path style="fill-rule:evenodd;clip-rule:evenodd;fill:url(#SVGID_00000085936305285929998530000001083804297736402834_);" d="
			M31.4,7c1.7,0,3.1,1.4,3.1,3.1v5.7c1.4,0.3,2.5,1.6,2.5,3.1v1.2c0,1-0.8,1.9-1.9,1.9l-0.6,0l0,9.4c0,1.5-1.1,2.8-2.5,3.1l0,0.7
			c0,1-0.8,1.9-1.9,1.9h-2.5c-1,0-1.9-0.8-1.9-1.9v-0.6h-7.5v0.6c0,1-0.7,1.8-1.7,1.9l-0.2,0h-2.5c-1,0-1.9-0.8-1.9-1.9l0-0.7
			c-1.4-0.3-2.5-1.6-2.5-3.1V22l-0.6,0c-1,0-1.8-0.7-1.9-1.7l0-0.2v-1.2c0-1.5,1.1-2.8,2.5-3.1v-5.7c0-1.7,1.4-3.1,3.1-3.1H31.4z
			 M15.1,27c-1,0-1.9,0.8-1.9,1.9c0,1,0.8,1.9,1.9,1.9s1.9-0.8,1.9-1.9C17,27.8,16.2,27,15.1,27z M28.9,27c-1,0-1.9,0.8-1.9,1.9
			c0,1,0.8,1.9,1.9,1.9c1,0,1.9-0.8,1.9-1.9C30.8,27.8,29.9,27,28.9,27z M30.1,14.5H13.9c-1,0-1.9,0.8-1.9,1.9v6.2
			c0,1,0.8,1.9,1.9,1.9h16.2c1,0,1.9-0.8,1.9-1.9v-6.2C32,15.3,31.2,14.5,30.1,14.5z M28.9,9.5H15.1c-1,0-1.9,0.8-1.9,1.9
			c0,1,0.8,1.9,1.9,1.9h13.8c1,0,1.9-0.8,1.9-1.9C30.8,10.3,29.9,9.5,28.9,9.5z"/>
	</g>
</g>
</svg>
