<?xml version="1.0" encoding="utf-8"?>
<!-- Generator: Adobe Illustrator 27.4.1, SVG Export Plug-In . SVG Version: 6.00 Build 0)  -->
<svg version="1.1" id="Layer_1" xmlns="http://www.w3.org/2000/svg" xmlns:xlink="http://www.w3.org/1999/xlink" x="0px" y="0px"
	 viewBox="0 0 44 44" style="enable-background:new 0 0 44 44;" xml:space="preserve">
<style type="text/css">
	.st0{fill:url(#SVGID_1_);}
	.st1{fill-rule:evenodd;clip-rule:evenodd;fill:url(#SVGID_00000000903788996692928480000012852249385332790936_);}
</style>
<linearGradient id="SVGID_1_" gradientUnits="userSpaceOnUse" x1="22" y1="48.3937" x2="22" y2="4.3937" gradientTransform="matrix(1 0 0 -1 0 48.3937)">
	<stop  offset="0" style="stop-color:#FFE05C"/>
	<stop  offset="1" style="stop-color:#FAB300"/>
</linearGradient>
<path class="st0" d="M10,0h24c5.5,0,10,4.5,10,10v24c0,5.5-4.5,10-10,10H10C4.5,44,0,39.5,0,34V10C0,4.5,4.5,0,10,0z"/>
<g>
	
		<linearGradient id="SVGID_00000006691367960108796330000004747275538746463673_" gradientUnits="userSpaceOnUse" x1="22.0005" y1="41.3937" x2="22.0005" y2="11.3937" gradientTransform="matrix(1 0 0 -1 0 48.3937)">
		<stop  offset="0.6094" style="stop-color:#FFFFFF"/>
		<stop  offset="1" style="stop-color:#FBE35C"/>
	</linearGradient>
	<path style="fill-rule:evenodd;clip-rule:evenodd;fill:url(#SVGID_00000006691367960108796330000004747275538746463673_);" d="
		M16.4,28L16.4,28l4.6,3.6c0.1,0.1,0.2,0.2,0.2,0.4l0,0.1v4.3c0,0.1,0,0.3-0.1,0.4c-0.2,0.2-0.5,0.3-0.7,0.2l-0.1-0.1l-8-6.1
		c-0.1-0.1-0.1-0.1-0.2-0.2c-0.1-0.3,0-0.6,0.2-0.7l0.1-0.1l3.6-1.7C16.1,27.9,16.3,27.9,16.4,28z M28.4,28l3.6,1.7
		c0.3,0.1,0.4,0.5,0.3,0.8c0,0.1-0.1,0.2-0.2,0.2l-8,6.1c-0.3,0.2-0.6,0.1-0.8-0.1c-0.1-0.1-0.1-0.2-0.1-0.4v-4.3
		c0-0.2,0.1-0.4,0.2-0.5l4.5-3.6C27.9,27.9,28.2,27.9,28.4,28z M22.4,14.4l0.1,0.1l5.4,4.7c0.2,0.1,0.2,0.3,0.2,0.5l0,0.1L27,26.2
		c0,0.1-0.1,0.2-0.2,0.3l-0.1,0.1l-4.2,3.4c-0.2,0.2-0.5,0.2-0.8,0.1l-0.1-0.1l-4.1-3.4c-0.1-0.1-0.2-0.2-0.2-0.4
		c-0.5-2.3-0.9-4.6-1.4-6.8c1.9-1.6,3.8-3.3,5.7-4.9C21.8,14.3,22.1,14.2,22.4,14.4z M9.9,18l0.1,0l3.7,1.2c0.2,0.1,0.3,0.2,0.4,0.4
		l0,0.1l1.2,6.1c0,0.2,0,0.5-0.2,0.6L15,26.5l-3.5,1.7c-0.1,0-0.1,0-0.2,0.1c-0.3,0-0.6-0.1-0.7-0.4l0-0.1l-1.3-9.1
		c0-0.1,0-0.2,0-0.3C9.4,18.1,9.7,17.9,9.9,18z M34.7,18.4c0,0.1,0,0.2,0,0.3l-1.3,9.1c0,0.3-0.4,0.6-0.7,0.5c-0.1,0-0.1,0-0.2-0.1
		L29,26.5c-0.2-0.1-0.4-0.4-0.3-0.7l1.2-6.1c0-0.2,0.2-0.4,0.4-0.5L34,18C34.3,17.9,34.6,18.1,34.7,18.4z M21.8,17.8
		c-0.3-0.3-0.7-0.3-1,0l-2.7,2.5l-0.1,0.1c-0.1,0.2-0.2,0.4-0.1,0.6l0.8,3.6l0,0.1c0.1,0.3,0.4,0.5,0.8,0.4l0.1,0
		c0.3-0.1,0.5-0.4,0.4-0.8l-0.7-3.2l2.4-2.2l0.1-0.1C22.1,18.4,22.1,18,21.8,17.8z M21.1,7.2c0.1,0.1,0.1,0.2,0.1,0.4v4.6
		c0,0.2-0.1,0.3-0.2,0.5l-5.9,5c-0.2,0.1-0.4,0.2-0.6,0.1l-4.3-1.6c-0.3-0.1-0.5-0.5-0.4-0.8c0-0.1,0.1-0.2,0.2-0.3l10.2-8
		C20.5,6.9,20.9,7,21.1,7.2z M23.9,7.1L24,7.1l10.1,8c0.1,0.1,0.2,0.2,0.2,0.3c0.1,0.3,0,0.6-0.3,0.7l-0.1,0l-4.6,1.5
		c-0.2,0.1-0.3,0-0.5,0l-0.1-0.1l-5.5-4.9c-0.1-0.1-0.2-0.2-0.2-0.3l0-0.1V7.6c0-0.1,0-0.3,0.1-0.4C23.3,7,23.6,6.9,23.9,7.1z"/>
</g>
</svg>
