<?xml version="1.0" encoding="utf-8"?>
<!-- Generator: Adobe Illustrator 27.4.1, SVG Export Plug-In . SVG Version: 6.00 Build 0)  -->
<svg version="1.1" id="Layer_1" xmlns="http://www.w3.org/2000/svg" xmlns:xlink="http://www.w3.org/1999/xlink" x="0px" y="0px"
	 viewBox="0 0 44 44" style="enable-background:new 0 0 44 44;" xml:space="preserve">
<style type="text/css">
	.st0{fill:url(#SVGID_1_);}
	.st1{fill:url(#SVGID_00000179636402769344969760000002168104364830802854_);}
	.st2{fill-rule:evenodd;clip-rule:evenodd;fill:url(#SVGID_00000132771340900345903510000009676994191096673706_);}
	.st3{fill:url(#SVGID_00000001651515282684996160000011890503476547167927_);}
	.st4{fill:url(#SVGID_00000160911719007558947280000012721426220515675562_);}
	.st5{fill:url(#SVGID_00000000941571281173552930000016249112905012830861_);}
	.st6{fill-rule:evenodd;clip-rule:evenodd;fill:url(#SVGID_00000004509662796224203730000004417327826509673651_);}
</style>
<linearGradient id="SVGID_1_" gradientUnits="userSpaceOnUse" x1="22" y1="46.3937" x2="22" y2="2.3937" gradientTransform="matrix(1 0 0 -1 0 46.3937)">
	<stop  offset="0" style="stop-color:#96D3FF"/>
	<stop  offset="1" style="stop-color:#0091FA"/>
</linearGradient>
<path class="st0" d="M10,0h24c5.5,0,10,4.5,10,10v24c0,5.5-4.5,10-10,10H10C4.5,44,0,39.5,0,34V10C0,4.5,4.5,0,10,0z"/>
<g>
	
		<linearGradient id="SVGID_00000085212922518809592470000011924015121887930520_" gradientUnits="userSpaceOnUse" x1="20.1467" y1="37.8937" x2="20.1467" y2="9.3937" gradientTransform="matrix(1 0 0 -1 0 46.3937)">
		<stop  offset="0.6763" style="stop-color:#FFFFFF"/>
		<stop  offset="1" style="stop-color:#95D3FF"/>
	</linearGradient>
	<path style="fill:url(#SVGID_00000085212922518809592470000011924015121887930520_);" d="M6.8,14.1c0-3.1,2.5-5.6,5.6-5.6h16.8
		c2.3,0,4.2,1.9,4.2,4.2v7.2h-7c-2.8,0-5.4,2.4-5.4,5.4v7h-8.6c-3.1,0-5.6-2.5-5.6-5.6v-1.4h7.7c2.7,0,4.9-2.2,4.9-4.9
		c0-2.7-2.2-4.9-4.9-4.9H6.8V14.1z"/>
	
		<linearGradient id="SVGID_00000065778196218612958290000006850622451662276028_" gradientUnits="userSpaceOnUse" x1="12.0987" y1="37.8937" x2="12.0987" y2="9.3937" gradientTransform="matrix(1 0 0 -1 0 46.3937)">
		<stop  offset="0.6763" style="stop-color:#FFFFFF"/>
		<stop  offset="1" style="stop-color:#95D3FF"/>
	</linearGradient>
	<path style="fill-rule:evenodd;clip-rule:evenodd;fill:url(#SVGID_00000065778196218612958290000006850622451662276028_);" d="
		M14.5,23.2H6.8v-5.6h7.7c1.5,0,2.8,1.3,2.8,2.8C17.3,21.9,16.1,23.2,14.5,23.2z M13.8,21.8c0.8,0,1.4-0.6,1.4-1.4
		c0-0.8-0.6-1.4-1.4-1.4c-0.8,0-1.4,0.6-1.4,1.4C12.4,21.2,13.1,21.8,13.8,21.8z"/>
	
		<linearGradient id="SVGID_00000140015209026745558530000013590438945327461778_" gradientUnits="userSpaceOnUse" x1="30.1978" y1="37.8937" x2="30.1978" y2="9.3937" gradientTransform="matrix(1 0 0 -1 0 46.3937)">
		<stop  offset="0.6763" style="stop-color:#FFFFFF"/>
		<stop  offset="1" style="stop-color:#95D3FF"/>
	</linearGradient>
	<path style="fill:url(#SVGID_00000140015209026745558530000013590438945327461778_);" d="M30.2,30.6c0.5,0,0.9-0.4,0.9-0.9
		c0-0.5-0.4-0.9-0.9-0.9c-0.5,0-0.9,0.4-0.9,0.9C29.3,30.2,29.7,30.6,30.2,30.6z"/>
	
		<linearGradient id="SVGID_00000067951808899726001330000010687771898565240464_" gradientUnits="userSpaceOnUse" x1="27.4291" y1="37.8937" x2="27.4291" y2="9.3937" gradientTransform="matrix(1 0 0 -1 0 46.3937)">
		<stop  offset="0.6763" style="stop-color:#FFFFFF"/>
		<stop  offset="1" style="stop-color:#95D3FF"/>
	</linearGradient>
	<path style="fill:url(#SVGID_00000067951808899726001330000010687771898565240464_);" d="M27.4,30.6c0.5,0,0.9-0.4,0.9-0.9
		c0-0.5-0.4-0.9-0.9-0.9c-0.5,0-0.9,0.4-0.9,0.9C26.5,30.2,26.9,30.6,27.4,30.6z"/>
	
		<linearGradient id="SVGID_00000020395198075473690180000013088983310567570084_" gradientUnits="userSpaceOnUse" x1="27.4291" y1="37.8937" x2="27.4291" y2="9.3937" gradientTransform="matrix(1 0 0 -1 0 46.3937)">
		<stop  offset="0.6763" style="stop-color:#FFFFFF"/>
		<stop  offset="1" style="stop-color:#95D3FF"/>
	</linearGradient>
	<path style="fill:url(#SVGID_00000020395198075473690180000013088983310567570084_);" d="M28.4,32.4c0,0.5-0.4,0.9-0.9,0.9
		c-0.5,0-0.9-0.4-0.9-0.9s0.4-0.9,0.9-0.9C27.9,31.5,28.4,31.9,28.4,32.4z"/>
	
		<linearGradient id="SVGID_00000037665896567569054960000014180753287190842537_" gradientUnits="userSpaceOnUse" x1="30.9989" y1="37.8937" x2="30.9989" y2="9.3937" gradientTransform="matrix(1 0 0 -1 0 46.3937)">
		<stop  offset="0.6763" style="stop-color:#FFFFFF"/>
		<stop  offset="1" style="stop-color:#95D3FF"/>
	</linearGradient>
	<path style="fill-rule:evenodd;clip-rule:evenodd;fill:url(#SVGID_00000037665896567569054960000014180753287190842537_);" d="
		M26.4,22.7c0-0.5,0.4-0.9,0.9-0.9c0.5,0,0.9,0.4,0.9,0.9v1h5.5v-1c0-0.5,0.4-0.9,0.9-0.9c0.5,0,0.9,0.4,0.9,0.9v1h0.9
		c1.3,0,1.8,0.9,1.8,1.8v9.6c0,1-0.8,1.8-1.8,1.8H25.5c-1,0-1.8-0.8-1.8-1.8v-9.6c0-1,0.8-1.8,1.8-1.8h0.9V22.7z M36.5,27.6H25.5
		v7.6h11.1V27.6z"/>
</g>
</svg>
