<?xml version="1.0" encoding="utf-8"?>
<!-- Generator: Adobe Illustrator 27.4.1, SVG Export Plug-In . SVG Version: 6.00 Build 0)  -->
<svg version="1.1" id="Layer_1" xmlns="http://www.w3.org/2000/svg" xmlns:xlink="http://www.w3.org/1999/xlink" x="0px" y="0px"
	 viewBox="0 0 44 44" style="enable-background:new 0 0 44 44;" xml:space="preserve">
<style type="text/css">
	.st0{fill:url(#SVGID_1_);}
	.st1{fill-rule:evenodd;clip-rule:evenodd;fill:url(#SVGID_00000075866105502791146190000005977184039914854574_);}
</style>
<g>
	<g>
		
			<linearGradient id="SVGID_1_" gradientUnits="userSpaceOnUse" x1="22" y1="46.3937" x2="22" y2="2.3937" gradientTransform="matrix(1 0 0 -1 0 46.3937)">
			<stop  offset="0" style="stop-color:#B5E3FC"/>
			<stop  offset="1" style="stop-color:#58C0F9"/>
		</linearGradient>
		<path class="st0" d="M10,0h24c5.5,0,10,4.5,10,10v24c0,5.5-4.5,10-10,10H10C4.5,44,0,39.5,0,34V10C0,4.5,4.5,0,10,0z"/>
		
			<linearGradient id="SVGID_00000176045131756688726880000018445398762153913275_" gradientUnits="userSpaceOnUse" x1="22.9319" y1="38.6437" x2="22.9319" y2="8.6437" gradientTransform="matrix(1 0 0 -1 0 46.3937)">
			<stop  offset="0.6146" style="stop-color:#FFFFFF"/>
			<stop  offset="1" style="stop-color:#B5E3FC"/>
		</linearGradient>
		<path style="fill-rule:evenodd;clip-rule:evenodd;fill:url(#SVGID_00000176045131756688726880000018445398762153913275_);" d="
			M12.9,7.8c0.8,0,1.4,0.6,1.5,1.3l0,0.2v1.1c0,0.8-0.7,1.5-1.5,1.5c-0.6,0-1.1-0.4-1.4-0.9l-0.1-0.2l0,0l-0.7,0l0,0l0,0l0,0l0,4.4
			c0,0,0,0,0,0l0,0.1c0,3.2,2.2,5.5,5.2,5.5c3,0,5.2-2.3,5.2-5.5l0-4.6c0,0,0,0,0,0l0,0l-0.7,0l0,0c-0.2,0.6-0.7,1.1-1.4,1.1
			c-0.8,0-1.4-0.6-1.5-1.3l0-0.2V9.2c0-0.8,0.6-1.4,1.3-1.5l0.2,0h2.2c1.6,0,2.9,1.2,3,2.8l0,0.2v4.5c0,2.2-0.8,4.3-2.1,5.8
			l-0.3,0.3l-0.1,0.1l-0.1,0c0,0,0,0,0,0l-0.1,0.1l-4.1,5.8l0,3.2c0,2.1,1.6,3.9,3.7,4.1l0.3,0l0.3,0c2.2,0,4.1-1.6,4.2-3.8l0-16.7
			c0-2.8,2.2-5,5-5c2.7,0,4.9,2.1,5,4.7l0,0.3l0,7.7l0,0c1.2,0.5,2.1,1.7,2.3,3l0,0.3l0,0.3c0,2.1-1.7,3.8-3.8,3.8
			c-2.1,0-3.8-1.7-3.8-3.8c0-1.5,0.8-2.8,2.1-3.4l0.3-0.1v-7.7c0-1-0.7-1.8-1.6-2l-0.2,0l-0.2,0c-1,0-1.9,0.8-2,1.8l0,0.2l0,10h0V31
			c0,3.8-3.3,6.8-7.1,6.8c-3.8,0-7-3-7.1-6.8l0-0.3l0-3.1l-4.1-5.9l-0.1-0.1l0,0l-0.1-0.1l-0.1-0.1c-1.5-1.5-2.3-3.5-2.4-5.7l0-0.4
			c0-0.1,0-0.1,0-0.1l0-0.1l0-4.3c0-1.6,1.2-2.9,2.8-3l0.2,0H12.9z M34.4,24.4c-0.6,0-1.1,0.5-1.1,1.1s0.5,1.1,1.1,1.1
			s1.1-0.5,1.1-1.1S35,24.4,34.4,24.4z M14.1,22.9l1.9,2.8l1.9-2.8L17.1,23l-0.4,0c-0.3,0-0.5,0-0.8,0c-0.3,0-0.5,0-0.8,0l-0.4,0
			L14.1,22.9z"/>
	</g>
</g>
</svg>
