<?xml version="1.0" encoding="utf-8"?>
<!-- Generator: Adobe Illustrator 27.4.1, SVG Export Plug-In . SVG Version: 6.00 Build 0)  -->
<svg version="1.1" id="Layer_1" xmlns="http://www.w3.org/2000/svg" xmlns:xlink="http://www.w3.org/1999/xlink" x="0px" y="0px"
	 viewBox="0 0 44 44" style="enable-background:new 0 0 44 44;" xml:space="preserve">
<style type="text/css">
	.st0{fill:url(#SVGID_1_);}
	.st1{fill-rule:evenodd;clip-rule:evenodd;fill:url(#SVGID_00000106837066598595483650000005267104375203429273_);}
</style>
<linearGradient id="SVGID_1_" gradientUnits="userSpaceOnUse" x1="22" y1="46.3937" x2="22" y2="2.3937" gradientTransform="matrix(1 0 0 -1 0 46.3937)">
	<stop  offset="0" style="stop-color:#00FF89"/>
	<stop  offset="1" style="stop-color:#00B964"/>
</linearGradient>
<path class="st0" d="M10,0h24c5.5,0,10,4.5,10,10v24c0,5.5-4.5,10-10,10H10C4.5,44,0,39.5,0,34V10C0,4.5,4.5,0,10,0z"/>
<g>
	
		<linearGradient id="SVGID_00000178186998116858754730000016595678447908297864_" gradientUnits="userSpaceOnUse" x1="21.5996" y1="39.3937" x2="21.5996" y2="9.3937" gradientTransform="matrix(1 0 0 -1 0 46.3937)">
		<stop  offset="0.6429" style="stop-color:#FFFFFF"/>
		<stop  offset="1" style="stop-color:#6EF7B7"/>
	</linearGradient>
	<path style="fill-rule:evenodd;clip-rule:evenodd;fill:url(#SVGID_00000178186998116858754730000016595678447908297864_);" d="
		M19.6,19.9c3.5,0,6.2-2.9,6.2-6.4S23.1,7,19.6,7c-3.5,0-6.3,2.9-6.3,6.4S16.1,19.9,19.6,19.9z M19.6,22.9c-4.2,0-12.7,2-12.6,6.7
		c0,0,0.1,2.7,3.2,2.7h2.9h5.6c-0.4-1.1-0.6-2.2-0.6-3.4c0-2.3,0.8-4.3,2-6C19.9,23,19.8,22.9,19.6,22.9z M36.2,29c0-4.4-3.6-8-8-8
		c-4.4,0-8,3.6-8,8c0,4.4,3.6,8,8,8C32.6,37,36.2,33.4,36.2,29z M22.3,30.6c-0.2-0.6,0.4-1.1,1-0.9l0.1,0c1.6,0.5,2.8,1.9,3.1,3.6
		l0.1,0.3c0.1,0.6-0.6,1.1-1.1,0.8C23.9,33.7,22.7,32.3,22.3,30.6z M33.1,29.7c0.6-0.2,1.2,0.3,1,0.9c-0.5,1.6-1.6,3-3.1,3.8
		c-0.6,0.3-1.2-0.2-1.1-0.8c0-0.1,0-0.2,0-0.2C30.2,31.7,31.4,30.3,33.1,29.7z M22.8,26c1.1-1.9,3.1-3.1,5.4-3.1
		c2.3,0,4.3,1.3,5.4,3.1c0.3,0.5-0.1,1.2-0.7,1.1c-3.1-0.2-6.2-0.2-9.3,0C22.9,27.2,22.5,26.5,22.8,26z"/>
</g>
</svg>
