<?xml version="1.0" encoding="utf-8"?>
<!-- Generator: Adobe Illustrator 27.4.1, SVG Export Plug-In . SVG Version: 6.00 Build 0)  -->
<svg version="1.1" id="Layer_1" xmlns="http://www.w3.org/2000/svg" xmlns:xlink="http://www.w3.org/1999/xlink" x="0px" y="0px"
	 viewBox="0 0 44 44" style="enable-background:new 0 0 44 44;" xml:space="preserve">
<style type="text/css">
	.st0{fill:url(#SVGID_1_);}
	.st1{fill-rule:evenodd;clip-rule:evenodd;fill:url(#SVGID_00000148646582357614708810000010246950539442393732_);}
</style>
<g>
	<g>
		
			<linearGradient id="SVGID_1_" gradientUnits="userSpaceOnUse" x1="22" y1="46.3937" x2="22" y2="2.3937" gradientTransform="matrix(1 0 0 -1 0 46.3937)">
			<stop  offset="0" style="stop-color:#FF94D1"/>
			<stop  offset="1" style="stop-color:#F340A7"/>
		</linearGradient>
		<path class="st0" d="M10,0h24c5.5,0,10,4.5,10,10v24c0,5.5-4.5,10-10,10H10C4.5,44,0,39.5,0,34V10C0,4.5,4.5,0,10,0z"/>
		
			<linearGradient id="SVGID_00000071523082708863919110000003487687125920407182_" gradientUnits="userSpaceOnUse" x1="22" y1="37.8937" x2="22" y2="10.0888" gradientTransform="matrix(1 0 0 -1 0 46.3937)">
			<stop  offset="0.6198" style="stop-color:#FFFFFF"/>
			<stop  offset="1" style="stop-color:#FF94D1"/>
		</linearGradient>
		<path style="fill-rule:evenodd;clip-rule:evenodd;fill:url(#SVGID_00000071523082708863919110000003487687125920407182_);" d="
			M20.2,8.5c0.8,0,1.5,0.7,1.5,1.5v8.8c0,2.8-1.6,4.7-4.8,5.6c-0.6,0.2-1.1,0.8-1.1,1.4v9.1c0,0.8-0.7,1.5-1.5,1.5
			c-0.8,0-1.5-0.7-1.5-1.5v-9.1c0-0.7-0.4-1.2-1.1-1.4C8.6,23.4,7,21.6,7,18.7V10c0-0.8,0.7-1.5,1.5-1.5c0.8,0,1.5,0.7,1.5,1.5v8.8
			h2.9V10c0-0.8,0.7-1.5,1.5-1.5c0.8,0,1.5,0.7,1.5,1.5v8.8h2.9V10C18.7,9.2,19.4,8.5,20.2,8.5z M30.4,8.5c4.7,0,6.6,5.8,6.6,8.8
			l0,1.5c0,2.6-1.5,4.9-4.5,6.9c-0.4,0.3-0.7,0.7-0.7,1.2v8c0,0.8-0.7,1.5-1.5,1.5c-0.8,0-1.5-0.7-1.5-1.5v-7.9c0-0.5-0.3-1-0.7-1.2
			c-2.9-1.8-4.4-4.1-4.4-6.9l0-1.5C23.8,14.3,25.7,8.5,30.4,8.5z"/>
	</g>
</g>
</svg>
