<?xml version="1.0" encoding="utf-8"?>
<!-- Generator: Adobe Illustrator 27.4.1, SVG Export Plug-In . SVG Version: 6.00 Build 0)  -->
<svg version="1.1" id="Layer_1" xmlns="http://www.w3.org/2000/svg" xmlns:xlink="http://www.w3.org/1999/xlink" x="0px" y="0px"
	 viewBox="0 0 850.4 850.4" style="enable-background:new 0 0 850.4 850.4;" xml:space="preserve">
<style type="text/css">
	.st0{fill:#FFC7C7;}
	.st1{fill-rule:evenodd;clip-rule:evenodd;fill:url(#SVGID_1_);}
</style>
<path class="st0" d="M92.4,1H756c51.3,0,92.9,41.6,92.9,92.9v663.6c0,51.3-41.6,92.9-92.9,92.9H92.4c-51.3,0-92.9-41.6-92.9-92.9
	V93.9C-0.5,42.6,41.1,1,92.4,1z"/>
<linearGradient id="SVGID_1_" gradientUnits="userSpaceOnUse" x1="122.9027" y1="440.3557" x2="729.6208" y2="414.0549" gradientTransform="matrix(1 0 0 1 0 1.6063)">
	<stop  offset="0" style="stop-color:#FF4105"/>
	<stop  offset="1" style="stop-color:#F40D2A"/>
</linearGradient>
<path class="st1" d="M369.4,180.4h255.9c55,0,99.6,44.5,99.6,99.4v291.9c0,54.9-44.6,99.4-99.6,99.4H369.4
	c-135.7,0-245.7-109.8-245.7-245.3S233.7,180.5,369.4,180.4L369.4,180.4z M392.6,411.3c4.5-4.6,8.1-10,10.8-16.3
	c2.7-6.2,4.1-13.3,4.1-20.2s-1.4-13.5-4.1-19.8c-2.7-6.2-6.4-11.6-10.8-16.3c-4.5-4.6-9.8-8.3-16-10.9s-12.8-3.9-19.7-3.9
	s-13.5,1.3-19.7,3.9s-11.6,6.2-16,10.9c-4.5,4.6-8.1,10-10.8,16.1c-2.7,6.1-4.1,12.6-4.1,19.5s1.4,14.4,4.1,20.6s6.4,11.6,10.8,16.3
	c4.5,4.6,9.8,8.3,16,10.9s12.8,3.9,19.7,3.9s13.5-1.3,19.7-3.9S388.1,415.9,392.6,411.3L392.6,411.3z M480.3,327.3
	c6.6,14.6,10,30.8,10,48.4s-2.4,28.5-7.2,41.2c0,0-55.8,184.5-56.4,186.8h-91.5L363.1,495h-0.7c-2.3,0-4.6,0.1-6.9,0.1
	c-19.1,0-36.7-2.9-52.9-8.7c-16.2-5.8-30.1-14-41.8-24.8c-11.7-10.7-20.9-23.5-27.5-38.4c-6.7-14.9-10-31.5-10-49.7
	s3.3-31.9,10-46.2c6.6-14.3,15.9-26.8,27.7-37.3c11.8-10.6,25.9-18.9,42.2-25c16.3-6.1,34.5-9.1,53.5-9.1s36.7,3,53.1,8.9
	c16.3,5.9,30.5,14.2,42.5,24.7C464.3,300.1,473.6,312.7,480.3,327.3L480.3,327.3z M549.4,342.1l-77.9,261.5h91.9l77.9-261.5
	L549.4,342.1L549.4,342.1z"/>
</svg>
