<?xml version="1.0" encoding="utf-8"?>
<!-- Generator: Adobe Illustrator 27.4.1, SVG Export Plug-In . SVG Version: 6.00 Build 0)  -->
<svg version="1.1" id="Layer_1" xmlns="http://www.w3.org/2000/svg" xmlns:xlink="http://www.w3.org/1999/xlink" x="0px" y="0px"
	 viewBox="0 0 44 44" style="enable-background:new 0 0 44 44;" xml:space="preserve">
<style type="text/css">
	.st0{fill:url(#SVGID_1_);}
	.st1{fill-rule:evenodd;clip-rule:evenodd;fill:url(#SVGID_00000046323876379940512300000010724539857585558913_);}
</style>
<g>
	<g>
		
			<linearGradient id="SVGID_1_" gradientUnits="userSpaceOnUse" x1="22" y1="46.3937" x2="22" y2="2.3937" gradientTransform="matrix(1 0 0 -1 0 46.3937)">
			<stop  offset="0" style="stop-color:#FF9E9C"/>
			<stop  offset="1" style="stop-color:#F80400"/>
		</linearGradient>
		<path class="st0" d="M10,0h24c5.5,0,10,4.5,10,10v24c0,5.5-4.5,10-10,10H10C4.5,44,0,39.5,0,34V10C0,4.5,4.5,0,10,0z"/>
		
			<linearGradient id="SVGID_00000127018930160162948320000010239692511412244903_" gradientUnits="userSpaceOnUse" x1="22" y1="37.2187" x2="22" y2="11.5687" gradientTransform="matrix(1 0 0 -1 0 46.3937)">
			<stop  offset="0.6771" style="stop-color:#FFFFFF"/>
			<stop  offset="1" style="stop-color:#FF9D9B"/>
		</linearGradient>
		<path style="fill-rule:evenodd;clip-rule:evenodd;fill:url(#SVGID_00000127018930160162948320000010239692511412244903_);" d="
			M20.7,9.2c1.5,0,2.7,1.2,2.7,2.7v4h8.1c1.5,0,2.7,1.2,2.7,2.7v13.5l0.2,0c0.7,0.1,1.2,0.6,1.2,1.3v1.4h-27v-1.4
			c0-0.7,0.6-1.3,1.3-1.3V11.9c0-1.5,1.2-2.7,2.7-2.7H20.7z M19.3,25.4c-0.7,0-1.4,0.6-1.4,1.4v5.4h2.7v-5.4
			C20.7,26,20,25.4,19.3,25.4z M24.7,25.4c-0.7,0-1.3,0.6-1.3,1.4v5.4h2.7v-5.4C26.1,26,25.4,25.4,24.7,25.4z M13.9,25.4
			c-0.7,0-1.3,0.6-1.3,1.4v1.4c0,0.7,0.6,1.3,1.3,1.3s1.4-0.6,1.4-1.3v-1.4C15.3,26,14.6,25.4,13.9,25.4z M30.1,25.4
			c-0.7,0-1.4,0.6-1.4,1.4v1.4c0,0.7,0.6,1.3,1.4,1.3c0.7,0,1.3-0.6,1.3-1.3v-1.4C31.5,26,30.8,25.4,30.1,25.4z M13.9,18.6
			c-0.7,0-1.3,0.6-1.3,1.4v1.4c0,0.7,0.6,1.3,1.3,1.3s1.4-0.6,1.4-1.3V20C15.3,19.2,14.6,18.6,13.9,18.6z M19.3,18.6
			c-0.7,0-1.4,0.6-1.4,1.4v1.4c0,0.7,0.6,1.3,1.4,1.3s1.4-0.6,1.4-1.3V20C20.7,19.2,20,18.6,19.3,18.6z M24.7,18.6
			c-0.7,0-1.3,0.6-1.3,1.4v1.4c0,0.7,0.6,1.3,1.3,1.3c0.7,0,1.4-0.6,1.4-1.3V20C26.1,19.2,25.4,18.6,24.7,18.6z M30.1,18.6
			c-0.7,0-1.4,0.6-1.4,1.4v1.4c0,0.7,0.6,1.3,1.4,1.3c0.7,0,1.3-0.6,1.3-1.3V20C31.5,19.2,30.8,18.6,30.1,18.6z M13.9,11.9
			c-0.7,0-1.3,0.6-1.3,1.4v1.4c0,0.7,0.6,1.3,1.3,1.3s1.4-0.6,1.4-1.3v-1.4C15.3,12.5,14.6,11.9,13.9,11.9z M19.3,11.9
			c-0.7,0-1.4,0.6-1.4,1.4v1.4c0,0.7,0.6,1.3,1.4,1.3s1.4-0.6,1.4-1.3v-1.4C20.7,12.5,20,11.9,19.3,11.9z"/>
	</g>
</g>
</svg>
