<?xml version="1.0" encoding="utf-8"?>
<!-- Generator: Adobe Illustrator 27.4.1, SVG Export Plug-In . SVG Version: 6.00 Build 0)  -->
<svg version="1.1" id="Layer_1" xmlns="http://www.w3.org/2000/svg" xmlns:xlink="http://www.w3.org/1999/xlink" x="0px" y="0px"
	 viewBox="0 0 44 44" style="enable-background:new 0 0 44 44;" xml:space="preserve">
<style type="text/css">
	.st0{fill:url(#SVGID_1_);}
	.st1{fill-rule:evenodd;clip-rule:evenodd;fill:url(#SVGID_00000175283290821884208530000001699021631938245260_);}
</style>
<g>
	<g>
		
			<linearGradient id="SVGID_1_" gradientUnits="userSpaceOnUse" x1="22" y1="46.3937" x2="22" y2="2.3937" gradientTransform="matrix(1 0 0 -1 0 46.3937)">
			<stop  offset="0" style="stop-color:#FF9E9C"/>
			<stop  offset="1" style="stop-color:#F80400"/>
		</linearGradient>
		<path class="st0" d="M10,0h24c5.5,0,10,4.5,10,10v24c0,5.5-4.5,10-10,10H10C4.5,44,0,39.5,0,34V10C0,4.5,4.5,0,10,0z"/>
		
			<linearGradient id="SVGID_00000084500951390086019120000013672194397921421738_" gradientUnits="userSpaceOnUse" x1="22.5642" y1="36.3935" x2="22.5642" y2="9.2415" gradientTransform="matrix(1 0 0 -1 0 46.3937)">
			<stop  offset="0.6771" style="stop-color:#FFFFFF"/>
			<stop  offset="1" style="stop-color:#FF9D9B"/>
		</linearGradient>
		<path style="fill-rule:evenodd;clip-rule:evenodd;fill:url(#SVGID_00000084500951390086019120000013672194397921421738_);" d="
			M23.7,18.4l0.7,3c-1.5,1-2.6,2.4-3.3,4.1l-1.5-2.9l-5.1,5.1l0.4,2.9c0,0.2,0,0.4-0.2,0.6l-0.5,0.5c-0.3,0.3-0.8,0.2-1-0.1
			l-1.9-3.4l-3.4-1.9c-0.4-0.2-0.5-0.7-0.1-1l0.5-0.5c0.1-0.1,0.4-0.2,0.6-0.2l2.9,0.4l5.1-5.1l-8.1-4.2c-0.8-0.4-1-1.5-0.3-2.2
			c0.3-0.3,0.8-0.5,1.3-0.4l11.3,2.6l5.1-5.1c0.8-0.8,2-0.8,2.8,0c0.8,0.8,0.8,2,0,2.8L23.7,18.4z M37.7,29.2c0-4.4-3.6-8-8-8
			l-0.3,0c-4.2,0.2-7.6,3.7-7.6,7.9c0,4.4,3.6,8,8,8l0.3,0C34.3,37,37.7,33.5,37.7,29.2z M23.4,29c0.1-3.4,2.9-6.1,6.4-6.1
			c0.1,0,0.2,0,0.3,0c0,0,0,0,0,0.1c0,0.1,0,0.2,0.1,0.2c0,0,0.1,0.1,0.1,0.1l0,0.1c0,0-0.1,0.1-0.4,0.3l-0.2,0.1
			c-0.5,0.3-1,0.8-1.1,1.4c0,0.3,0,0.5,0.2,0.7c0.1,0.1,0.1,0.1,0.2,0.1c0.5,0,0.8-0.2,1.2-0.3l0,0l0.2-0.1c0.3-0.1,0.6-0.2,0.9-0.2
			c1.3,0,2.3,0.3,2.3,0.7c0,0.1,0,0.2-0.1,0.2c-0.1,0.1-0.5,0.1-0.8,0.1l-0.9,0c-0.2,0-0.3,0-0.4-0.1L31.1,26
			c-0.2-0.1-0.4-0.1-0.7-0.1c-0.5,0-1.6,0.1-2.2,0.8c-0.5,0.5-0.5,1.2-0.4,1.6l0,0l0,0.1l0,0.1c0,0.7,0.7,1,1.3,1c1,0,1.9,0.2,2,0.3
			c0,0.4,0.1,0.6,0.2,0.8l0.1,0.1c0,0.1,0.1,0.2,0.1,0.4c0,0.2,0,0.2-0.1,0.3l-0.1,0.1c-0.1,0.1-0.2,0.3-0.2,0.6
			c0,0.6,0.4,1.2,0.7,1.4l0.1,0.1c0.1,0.1,0.2,0.1,0.2,0.1c0,0,0.1,0,0.1,0c0.2-0.1,1.9-0.5,1.9-1.6c0-0.4,0.1-0.4,0.3-0.6l0,0
			l0.1-0.1c0.1-0.1,0.3-0.3,0.3-0.7c0-0.3,0.5-1,0.9-1.4c0.1-0.1,0.1-0.2,0.1-0.3c0-0.1-0.1-0.2-0.1-0.2c-0.3-0.2-1-0.9-1.2-1.5
			c0.1,0.1,0.3,0.2,0.4,0.3c0.1,0.1,0.3,0.2,0.4,0.2c0.2,0,0.4-0.1,0.7-0.3c0.1,0.5,0.2,1,0.2,1.6c0,3.5-2.9,6.4-6.4,6.4
			c-1.8,0-3.5-0.8-4.6-2l0-0.7l0-0.2c0-0.2,0.2-0.4,0.3-0.6l0,0l0.1-0.1c0.1-0.2,0.3-0.5,0.3-0.8c0-0.5-0.4-0.7-0.7-0.7l-0.3,0
			c-0.2,0-0.3-0.1-0.4-0.2c-0.1-0.1-0.2-0.3-0.3-0.4L24,29.7C23.8,29.4,23.6,29.2,23.4,29z"/>
	</g>
</g>
</svg>
