<?xml version="1.0" encoding="utf-8"?>
<!-- Generator: Adobe Illustrator 27.4.1, SVG Export Plug-In . SVG Version: 6.00 Build 0)  -->
<svg version="1.1" id="Layer_1" xmlns="http://www.w3.org/2000/svg" xmlns:xlink="http://www.w3.org/1999/xlink" x="0px" y="0px"
	 viewBox="0 0 44 44" style="enable-background:new 0 0 44 44;" xml:space="preserve">
<style type="text/css">
	.st0{fill:url(#SVGID_1_);}
	.st1{fill-rule:evenodd;clip-rule:evenodd;fill:url(#SVGID_00000069358370679818525060000010245073087404537505_);}
</style>
<g>
	<g>
		
			<linearGradient id="SVGID_1_" gradientUnits="userSpaceOnUse" x1="22" y1="46.3937" x2="22" y2="2.3937" gradientTransform="matrix(1 0 0 -1 0 46.3937)">
			<stop  offset="0" style="stop-color:#B5E3FC"/>
			<stop  offset="1" style="stop-color:#58C0F9"/>
		</linearGradient>
		<path class="st0" d="M10,0h24c5.5,0,10,4.5,10,10v24c0,5.5-4.5,10-10,10H10C4.5,44,0,39.5,0,34V10C0,4.5,4.5,0,10,0z"/>
		
			<linearGradient id="SVGID_00000085234296216558577620000004727845073020795520_" gradientUnits="userSpaceOnUse" x1="23.6559" y1="39.3937" x2="23.6559" y2="9.9034" gradientTransform="matrix(1 0 0 -1 0 46.3937)">
			<stop  offset="0.6146" style="stop-color:#FFFFFF"/>
			<stop  offset="1" style="stop-color:#B5E3FC"/>
		</linearGradient>
		<path style="fill-rule:evenodd;clip-rule:evenodd;fill:url(#SVGID_00000085234296216558577620000004727845073020795520_);" d="
			M16.8,7c-1.2,0-2.1,1-2.1,2.1v1.5c0,1.2,1,2.1,2.1,2.1h10.1c1.2,0,2.1-1,2.1-2.1V9.1C29,8,28.1,7,26.9,7H16.8z M15.4,15.7
			c0-0.7,0.6-1.3,1.3-1.3H27c0.7,0,1.3,0.6,1.3,1.3v1.9c0,0.2,0.1,0.4,0.3,0.5c2,0.8,3.3,2.7,3.3,4.8v1l-4.5-1.7
			c-2.2-0.8-4.7,0.3-5.5,2.6c-0.8,2.2,0.3,4.7,2.6,5.5l6.7,2.5c0.2,0.1,0.5,0.2,0.8,0.2v0.9c0,1.5-1.2,2.6-2.6,2.6H14.4
			c-1.5,0-2.6-1.2-2.6-2.6V24v-0.2c0-2.3,1.2-4.5,3.2-5.6l0.1,0c0.2-0.1,0.3-0.3,0.3-0.6V15.7z M30.9,25.1l2.7,1
			c1.5,0.5,2.3,2.2,1.7,3.7s-2.2,2.3-3.7,1.7l-2.7-1L30.9,25.1z M26.9,23.6l2.7,1l-2,5.4l-2.7-1c-1.5-0.5-2.3-2.2-1.7-3.7
			C23.8,23.8,25.4,23.1,26.9,23.6z"/>
	</g>
</g>
</svg>
