<?xml version="1.0" encoding="utf-8"?>
<!-- Generator: Adobe Illustrator 27.4.1, SVG Export Plug-In . SVG Version: 6.00 Build 0)  -->
<svg version="1.1" id="Layer_1" xmlns="http://www.w3.org/2000/svg" xmlns:xlink="http://www.w3.org/1999/xlink" x="0px" y="0px"
	 viewBox="0 0 44 44" style="enable-background:new 0 0 44 44;" xml:space="preserve">
<style type="text/css">
	.st0{fill:url(#SVGID_1_);}
	.st1{fill-rule:evenodd;clip-rule:evenodd;fill:url(#SVGID_00000160872883556955171070000011045209537785602184_);}
</style>
<linearGradient id="SVGID_1_" gradientUnits="userSpaceOnUse" x1="22.0001" y1="46.3937" x2="22.0001" y2="2.3937" gradientTransform="matrix(1 0 0 -1 0 46.3937)">
	<stop  offset="0" style="stop-color:#00FF89"/>
	<stop  offset="1" style="stop-color:#00B964"/>
</linearGradient>
<path class="st0" d="M10,0h24c5.5,0,10,4.5,10,10v24c0,5.5-4.5,10-10,10H10C4.5,44,0,39.5,0,34V10C0,4.5,4.5,0,10,0z"/>
<g>
	<g>
		
			<linearGradient id="SVGID_00000130606249051769958920000011341706928878826159_" gradientUnits="userSpaceOnUse" x1="22.0002" y1="34.8937" x2="22.0002" y2="13.8939" gradientTransform="matrix(1 0 0 -1 0 46.3937)">
			<stop  offset="0.6429" style="stop-color:#FFFFFF"/>
			<stop  offset="1" style="stop-color:#6EF7B7"/>
		</linearGradient>
		<path style="fill-rule:evenodd;clip-rule:evenodd;fill:url(#SVGID_00000130606249051769958920000011341706928878826159_);" d="
			M11.4,26c1.8,0,3.3,1.5,3.3,3.3s-1.5,3.3-3.3,3.3c-1.8,0-3.3-1.5-3.3-3.3S9.6,26,11.4,26z M32.9,25.8c1.8,0,3.3,1.5,3.3,3.3
			c0,1.8-1.5,3.3-3.3,3.3s-3.3-1.5-3.3-3.3C29.6,27.3,31.1,25.8,32.9,25.8z M19.7,19.9c0.7,0,1.3,0.6,1.3,1.3v5.9
			c0,0.7-0.6,1.3-1.3,1.3l-3.4,0C16,26,14,24.2,11.5,24.2c-2.5,0-4.5,1.8-4.9,4.2l-1.3,0c-0.7,0-1.3-0.6-1.3-1.3v-5.9
			c0-0.7,0.6-1.3,1.3-1.3H19.7z M29,11.5c0.8,0,1.5,0.5,1.8,1.2l0.1,0.2l2,6.3c0.1,0.4,0.4,0.7,0.8,0.9l0.2,0l5,0.9
			c0.6,0.1,1,0.6,1.1,1.1l0,0.2v5.5c0,0.3-0.2,0.6-0.5,0.6l-0.1,0l-1.6,0c-0.3-2.4-2.4-4.2-4.9-4.2c-2.5,0-4.5,1.8-4.9,4.2l-3,0
			c-1,0-1.9-0.8-2-1.8l0-0.2V13.5c0-1,0.8-1.9,1.8-2l0.2,0H29z M28.3,14.1h-2.1c-0.3,0-0.6,0.2-0.6,0.5l0,0.1V19
			c0,0.3,0.2,0.6,0.5,0.6l0.1,0h3.5c0.1,0,0.1,0,0.2,0c0.3-0.1,0.5-0.4,0.5-0.7l0-0.1l-1.4-4.3C28.8,14.3,28.6,14.1,28.3,14.1z"/>
	</g>
</g>
</svg>
