<?xml version="1.0" encoding="utf-8"?>
<!-- Generator: Adobe Illustrator 27.4.1, SVG Export Plug-In . SVG Version: 6.00 Build 0)  -->
<svg version="1.1" id="Layer_1" xmlns="http://www.w3.org/2000/svg" xmlns:xlink="http://www.w3.org/1999/xlink" x="0px" y="0px"
	 viewBox="0 0 44 44" style="enable-background:new 0 0 44 44;" xml:space="preserve">
<style type="text/css">
	.st0{fill:url(#SVGID_1_);}
	.st1{fill-rule:evenodd;clip-rule:evenodd;fill:url(#SVGID_00000138550663352130859660000004297359839416419722_);}
</style>
<g>
	<g>
		
			<linearGradient id="SVGID_1_" gradientUnits="userSpaceOnUse" x1="22" y1="46.3937" x2="22" y2="2.3937" gradientTransform="matrix(1 0 0 -1 0 46.3937)">
			<stop  offset="0" style="stop-color:#F45FF0"/>
			<stop  offset="0.8177" style="stop-color:#C400B4"/>
		</linearGradient>
		<path class="st0" d="M10,0h24c5.5,0,10,4.5,10,10v24c0,5.5-4.5,10-10,10H10C4.5,44,0,39.5,0,34V10C0,4.5,4.5,0,10,0z"/>
		
			<linearGradient id="SVGID_00000052787694243176123480000015531392373721863099_" gradientUnits="userSpaceOnUse" x1="21.6915" y1="39.3937" x2="21.6915" y2="11.6437" gradientTransform="matrix(1 0 0 -1 0 46.3937)">
			<stop  offset="0.6875" style="stop-color:#FFFFFF"/>
			<stop  offset="1" style="stop-color:#FF9EFC"/>
		</linearGradient>
		<path style="fill-rule:evenodd;clip-rule:evenodd;fill:url(#SVGID_00000052787694243176123480000015531392373721863099_);" d="
			M23.3,7c2.5,0,4.5,2,4.5,4.5l0,2.9l1.3,0c0.4,0,0.8,0.3,0.8,0.8c0,0,0,0,0,0l-1.1,17.5c-0.1,1.2-1.1,2.1-2.2,2.1H10.8
			c-1.2,0-2.2-1-2.2-2.2c0-0.1,0-0.2,0-0.2L10.4,15c0-0.4,0.4-0.7,0.7-0.7l3.2,0l0-2.9c0-2.5,2-4.5,4.5-4.5c0.8,0,1.6,0.2,2.3,0.6
			l-0.1,0C21.8,7.2,22.5,7,23.3,7z M32.3,14.4c0.3,0,0.5,0.2,0.5,0.5l2,18.7c0,0,0,0.1,0,0.1c0,0.6-0.5,1-1.1,1h-2.3c0,0,0,0-0.1,0
			c-0.6,0-1-0.5-1-1.1l1.3-18.8C31.8,14.6,32.1,14.4,32.3,14.4z M18.9,8.9c-1.4,0-2.5,1-2.6,2.4l0,0.2l0,2.9h5.2v-2.9
			C21.5,10,20.3,8.9,18.9,8.9z M23.4,8.9c-0.3,0-0.6,0-0.8,0.1l0.1,0.1c0.4,0.7,0.7,1.5,0.7,2.4l0,2.9H26v-2.9
			C26,10,24.8,8.9,23.4,8.9z"/>
	</g>
</g>
</svg>
