<?xml version="1.0" encoding="utf-8"?>
<!-- Generator: Adobe Illustrator 27.4.1, SVG Export Plug-In . SVG Version: 6.00 Build 0)  -->
<svg version="1.1" id="Layer_1" xmlns="http://www.w3.org/2000/svg" xmlns:xlink="http://www.w3.org/1999/xlink" x="0px" y="0px"
	 viewBox="0 0 44 44" style="enable-background:new 0 0 44 44;" xml:space="preserve">
<style type="text/css">
	.st0{fill:url(#SVGID_1_);}
	.st1{fill-rule:evenodd;clip-rule:evenodd;fill:url(#SVGID_00000036937477718367871930000017898054988210674084_);}
</style>
<g>
	<g>
		
			<linearGradient id="SVGID_1_" gradientUnits="userSpaceOnUse" x1="22" y1="46.3937" x2="22" y2="2.3937" gradientTransform="matrix(1 0 0 -1 0 46.3937)">
			<stop  offset="0" style="stop-color:#00FF89"/>
			<stop  offset="1" style="stop-color:#00B964"/>
		</linearGradient>
		<path class="st0" d="M10,0h24c5.5,0,10,4.5,10,10v24c0,5.5-4.5,10-10,10H10C4.5,44,0,39.5,0,34V10C0,4.5,4.5,0,10,0z"/>
		
			<linearGradient id="SVGID_00000037666215414259374330000016223535748134130050_" gradientUnits="userSpaceOnUse" x1="21.9998" y1="36.8437" x2="21.9998" y2="12.2985" gradientTransform="matrix(1 0 0 -1 0 46.3937)">
			<stop  offset="0.6429" style="stop-color:#FFFFFF"/>
			<stop  offset="1" style="stop-color:#6EF7B7"/>
		</linearGradient>
		<path style="fill-rule:evenodd;clip-rule:evenodd;fill:url(#SVGID_00000037666215414259374330000016223535748134130050_);" d="
			M27.4,9.6c2.3,0,4.4,1.5,5.2,3.7l0.1,0.3l1,3.5h1.9c0.8,0,1.4,0.6,1.4,1.4c0,0.8-0.6,1.4-1.4,1.4l-0.2,0c0.9,0.8,1.5,1.9,1.6,3.1
			l0,0.3v8.2h-0.7v1.4c0,0.7-0.5,1.3-1.2,1.4l-0.2,0h-2c-0.7,0-1.3-0.5-1.4-1.2l0-0.2v-1.4H12.5v1.4c0,0.7-0.5,1.3-1.2,1.4l-0.2,0H9
			c-0.7,0-1.3-0.5-1.4-1.2l0-0.2v-1.4H7v-8.2l0-0.3c0.1-1.2,0.7-2.4,1.6-3.1l-0.2,0c-0.8,0-1.4-0.6-1.4-1.4c0-0.7,0.5-1.3,1.2-1.4
			l0.2,0h1.9l1-3.5c0.6-2.3,2.6-3.8,5-3.9l0.3,0H27.4z M35,23.2h-3.6c-1.1,0-2.1,0.7-2.5,1.7l-0.3,0.8c0,0.1,0,0.2,0,0.3
			c0,0.4,0.3,0.7,0.7,0.7H35c0.4,0,0.7-0.3,0.7-0.7v-2C35.6,23.5,35.3,23.2,35,23.2z M12.7,23.2H9l-0.1,0c-0.3,0.1-0.6,0.3-0.6,0.7
			v2l0,0.1c0.1,0.3,0.3,0.6,0.7,0.6h5.8l0.1,0c0.3-0.1,0.6-0.3,0.6-0.7c0-0.1,0-0.2,0-0.3l-0.3-0.8l-0.1-0.2
			C14.6,23.8,13.7,23.2,12.7,23.2z M25.6,23.2h-7.2c-0.2,0-0.3,0-0.5,0.1c-0.6,0.3-0.9,1-0.7,1.6c0.4,1,1.4,1.7,2.5,1.7h4.5
			c1.1,0,2.1-0.7,2.5-1.7c0.1-0.1,0.1-0.3,0.1-0.5C26.9,23.7,26.3,23.2,25.6,23.2z M28.5,12.2H15.4c-0.7,0-1.5,0.5-1.8,1.2l-1.2,5.7
			h19.1l-1.3-5.7C30,12.8,29.2,12.2,28.5,12.2z"/>
	</g>
</g>
</svg>
