<?xml version="1.0" encoding="utf-8"?>
<!-- Generator: Adobe Illustrator 27.4.1, SVG Export Plug-In . SVG Version: 6.00 Build 0)  -->
<svg version="1.1" id="Layer_1" xmlns="http://www.w3.org/2000/svg" xmlns:xlink="http://www.w3.org/1999/xlink" x="0px" y="0px"
	 viewBox="0 0 44 44" style="enable-background:new 0 0 44 44;" xml:space="preserve">
<style type="text/css">
	.st0{fill:url(#SVGID_1_);}
	.st1{fill-rule:evenodd;clip-rule:evenodd;fill:url(#SVGID_00000116216439498262536880000008978596537295649432_);}
</style>
<g>
	<g>
		
			<linearGradient id="SVGID_1_" gradientUnits="userSpaceOnUse" x1="22" y1="46.3937" x2="22" y2="2.3937" gradientTransform="matrix(1 0 0 -1 0 46.3937)">
			<stop  offset="0" style="stop-color:#FF9E9C"/>
			<stop  offset="1" style="stop-color:#F80400"/>
		</linearGradient>
		<path class="st0" d="M10,0h24c5.5,0,10,4.5,10,10v24c0,5.5-4.5,10-10,10H10C4.5,44,0,39.5,0,34V10C0,4.5,4.5,0,10,0z"/>
		
			<linearGradient id="SVGID_00000003080715083348754100000010853157091059509382_" gradientUnits="userSpaceOnUse" x1="22" y1="39.3937" x2="22" y2="9.3937" gradientTransform="matrix(1 0 0 -1 0 46.3937)">
			<stop  offset="0.6771" style="stop-color:#FFFFFF"/>
			<stop  offset="1" style="stop-color:#FF9D9B"/>
		</linearGradient>
		<path style="fill-rule:evenodd;clip-rule:evenodd;fill:url(#SVGID_00000003080715083348754100000010853157091059509382_);" d="
			M22,7C15.7,7,9.4,7.8,9.4,13.3v15c0,3,2.5,5.5,5.5,5.5l-2.1,2.1c-0.2,0.2-0.3,0.4-0.3,0.7c0,0.2,0.2,0.4,0.4,0.4h2.5
			c0.4,0,0.8-0.2,1.1-0.5l2.7-2.7h6l2.7,2.7c0.3,0.3,0.7,0.5,1.1,0.5h2.1c0.2,0,0.4-0.2,0.4-0.4c0-0.3-0.1-0.5-0.3-0.7l-2.1-2.1
			c3,0,5.5-2.5,5.5-5.5v-15C34.6,7.8,29,7,22,7z M14.9,30.7c-1.3,0-2.4-1.1-2.4-2.4c0-1.3,1.1-2.4,2.4-2.4c1.3,0,2.4,1.1,2.4,2.4
			C17.3,29.6,16.2,30.7,14.9,30.7z M12.5,18.1v-3.2c0-0.9,0.7-1.6,1.6-1.6h4.7c0.9,0,1.6,0.7,1.6,1.6v3.2c0,0.9-0.7,1.6-1.6,1.6
			h-4.7C13.2,19.6,12.5,18.9,12.5,18.1z M29.1,30.7c-1.3,0-2.4-1.1-2.4-2.4c0-1.3,1.1-2.4,2.4-2.4c1.3,0,2.4,1.1,2.4,2.4
			C31.5,29.6,30.4,30.7,29.1,30.7z M23.6,18.1v-3.2c0-0.9,0.7-1.6,1.6-1.6h4.7c0.9,0,1.6,0.7,1.6,1.6v3.2c0,0.9-0.7,1.6-1.6,1.6
			h-4.7C24.3,19.6,23.6,18.9,23.6,18.1z"/>
	</g>
</g>
</svg>
